<?xml version="1.0" encoding="UTF-8"?>
<svg version="1.1" xmlns="http://www.w3.org/2000/svg" width="160" height="160">
<path d="M0 0 C4.48862484 2.08953225 7.01046786 4.4357792 9 9 C8.67 9.99 8.34 10.98 8 12 C1.61343013 13.37749546 1.61343013 13.37749546 -1.4375 11.5 C-4.66851206 9.60867587 -6.57496879 9.74556091 -10.1953125 10.33984375 C-12.31173934 10.93364076 -12.31173934 10.93364076 -14 13.5625 C-14.33 14.366875 -14.66 15.17125 -15 16 C-13.35 15.67 -11.7 15.34 -10 15 C-10 16.65 -10 18.3 -10 20 C-7.77810176 17.77810176 -7.07401108 15.91517292 -6 13 C-4.68 13 -3.36 13 -2 13 C-2 13.66 -2 14.32 -2 15 C-1.05125 15.2475 -0.1025 15.495 0.875 15.75 C4 17 4 17 5.375 19.125 C5.58125 19.74375 5.7875 20.3625 6 21 C0.25 25 0.25 25 -2 25 C-2.66 24.01 -3.32 23.02 -4 22 C-4.6496875 23.2375 -4.6496875 23.2375 -5.3125 24.5 C-5.869375 25.325 -6.42625 26.15 -7 27 C-7.99 27 -8.98 27 -10 27 C-10.33 26.34 -10.66 25.68 -11 25 C-11.99 25 -12.98 25 -14 25 C-10.84518886 27.39000844 -9.39956367 28.02066709 -5.375 27.8125 C-1.89716613 27.18028437 -1.89716613 27.18028437 1 25 C4.1875 24.875 4.1875 24.875 7 25 C7.66 26.65 8.32 28.3 9 30 C3.03788749 37.61825488 3.03788749 37.61825488 -2.953125 38.37109375 C-10.25979081 38.51826593 -15.54153133 38.16268958 -21 33 C-25.83166143 26.80556227 -26.65792845 21.65589465 -26 14 C-21.62260171 1.78936267 -11.91923597 -1.34934747 0 0 Z M-3 18 C-3 18.66 -3 19.32 -3 20 C-2.34 19.67 -1.68 19.34 -1 19 C-1.66 18.67 -2.32 18.34 -3 18 Z " fill="#64DDE1" transform="translate(28,61)"/>
<path d="M0 0 C2.39859748 2.33547649 4.03615364 4.24102893 5.375 7.3125 C5.045 8.3025 4.715 9.2925 4.375 10.3125 C-2.01156987 11.68999546 -2.01156987 11.68999546 -5.0625 9.8125 C-8.91578655 7.55691763 -11.30805875 8.39249613 -15.625 9.3125 C-16.285 9.9725 -16.945 10.6325 -17.625 11.3125 C-20.125 11.5625 -20.125 11.5625 -22.625 11.3125 C-24.625 9.3125 -24.625 9.3125 -25.25 6.5 C-24.55636145 2.96244339 -24.21612452 2.49075728 -21.4375 0.4375 C-14.79059568 -3.22362912 -6.78820527 -3.16002659 0 0 Z " fill="#C76BE2" transform="translate(31.625,62.6875)"/>
<path d="M0 0 C2.9375 1.375 2.9375 1.375 5 3 C5 3.66 5 4.32 5 5 C4.34 5 3.68 5 3 5 C3 5.66 3 6.32 3 7 C1.906875 6.79375 0.81375 6.5875 -0.3125 6.375 C-4.0838401 5.59653475 -4.0838401 5.59653475 -7 8 C-7.25030977 10.58380177 -7.25030977 10.58380177 -7 13 C-3.98968256 13.93423645 -3.13349732 14.04449911 0 13 C-1.32 13 -2.64 13 -4 13 C-3.67 11.35 -3.34 9.7 -3 8 C3.15234375 7.90234375 3.15234375 7.90234375 5 8 C6 9 6 9 6.4375 12.8125 C6.37333728 16.37994715 6.17966668 16.81111964 3.5625 19.5625 C-0.97840618 21.39479548 -4.34056157 21.52361865 -9 20 C-11.86916187 17.48948337 -12.78664803 15.66850285 -13.9375 12.0625 C-14.03241841 7.4114978 -12.38590728 4.48490065 -9.25 1.125 C-5.99319286 -0.50340357 -3.59414313 -0.37833086 0 0 Z " fill="#182458" transform="translate(121,69)"/>
<path d="M0 0 C11.75862069 0 11.75862069 0 16 3 C18.59848021 6.01758992 19 7.49588616 19 11.5 C17.7234048 15.96808319 16.9610855 17.4862342 13 20 C8.57800086 20.41807992 4.46059108 20.22528238 0 20 C0 13.4 0 6.8 0 0 Z M6 6 C6 8.97 6 11.94 6 15 C8.41645782 15.16687448 8.41645782 15.16687448 11 15 C13.2491908 13.17296773 13.2491908 13.17296773 13.25 10.5 C13.2491908 7.82703227 13.2491908 7.82703227 11 6 C8.41645782 5.83312552 8.41645782 5.83312552 6 6 Z " fill="#172556" transform="translate(59,69)"/>
<path d="M0 0 C3.86790003 0.96697501 4.94476825 1.52700207 7.75 4.0625 C8.67039062 4.88427734 8.67039062 4.88427734 9.609375 5.72265625 C10.29773438 6.35494141 10.29773438 6.35494141 11 7 C11.66 4.69 12.32 2.38 13 0 C14.65 0 16.3 0 18 0 C18 6.93 18 13.86 18 21 C12.80869384 19.96173877 12.26624409 19.74065446 9.1875 15.9375 C8.28064453 14.83728516 8.28064453 14.83728516 7.35546875 13.71484375 C6.90816406 13.14894531 6.46085937 12.58304688 6 12 C5.67 14.64 5.34 17.28 5 20 C3.35 20 1.7 20 0 20 C0 13.4 0 6.8 0 0 Z " fill="#182559" transform="translate(88,69)"/>
<path d="M0 0 C3.62291705 2.0127317 4.78765675 3.53107532 6.5 7.3125 C7.12392742 11.91396471 6.36380554 14.03490684 4 18 C1.29013532 20.27042717 -0.45183064 20.91835776 -3.9375 21.4375 C-7.8124426 20.88393677 -9.95425348 19.40826469 -13 17 C-14.73631636 13.52736727 -14.60190402 9.78806987 -14 6 C-9.75456152 0.63734087 -6.76730322 -0.57350027 0 0 Z M-5 5 C-8.04444636 6.63753682 -8.04444636 6.63753682 -8.8125 8.875 C-9.04398726 11.49852224 -8.34771696 12.78023089 -7 15 C-4.08365871 15.2502157 -4.08365871 15.2502157 -1 15 C1.25162602 12.24528606 1.25162602 12.24528606 0.9375 9.4375 C0.20626992 6.79352804 0.20626992 6.79352804 -2.375 5.5625 C-3.24125 5.376875 -4.1075 5.19125 -5 5 Z " fill="#182458" transform="translate(51,69)"/>
<path d="M0 0 C9 0 9 0 12.0625 1.625 C14 4 14 4 14.4375 7.0625 C14 10 14 10 12 13 C12.7734375 14.1446875 12.7734375 14.1446875 13.5625 15.3125 C14.036875 16.199375 14.51125 17.08625 15 18 C14.67 18.99 14.34 19.98 14 21 C11.625 20.6875 11.625 20.6875 9 20 C8.34 19.01 7.68 18.02 7 17 C6.67 17.99 6.34 18.98 6 20 C4.02 20 2.04 20 0 20 C0 13.4 0 6.8 0 0 Z M6 6 C7.485 6.99 7.485 6.99 9 8 C9 7.34 9 6.68 9 6 C8.01 6 7.02 6 6 6 Z " fill="#182456" transform="translate(143,69)"/>
<path d="M0 0 C0.66 1.65 1.32 3.3 2 5 C-3.14643814 11.57600428 -3.14643814 11.57600428 -7 13 C-10.05859375 13.30078125 -10.05859375 13.30078125 -13.4375 13.3125 C-15.10619141 13.33763672 -15.10619141 13.33763672 -16.80859375 13.36328125 C-20.28492148 12.96756708 -22.17159635 12.00367286 -25 10 C-24.38125 9.4225 -23.7625 8.845 -23.125 8.25 C-21.18652947 6.19750179 -20.09985751 4.56633418 -19 2 C-17.783125 2.226875 -16.56625 2.45375 -15.3125 2.6875 C-9.48064389 3.44594877 -6.06014778 -0.42280101 0 0 Z " fill="#7DD559" transform="translate(35,86)"/>
<path d="M0 0 C3.96 0 7.92 0 12 0 C12.76232345 3.81161723 13.13559202 6.75466762 13.125 10.5625 C13.12757813 11.49191406 13.13015625 12.42132813 13.1328125 13.37890625 C13 16 13 16 12 20 C8.04 20 4.08 20 0 20 C0 13.4 0 6.8 0 0 Z M5 5 C5 5.99 5 6.98 5 8 C6.65 8 8.3 8 10 8 C10 9.65 10 11.3 10 13 C8.35 13 6.7 13 5 13 C5 13.66 5 14.32 5 15 C7.31 15 9.62 15 12 15 C12 12.03 12 9.06 12 6 C11.21625 6.020625 10.4325 6.04125 9.625 6.0625 C7 6 7 6 5 5 Z " fill="#182456" transform="translate(129,69)"/>
<path d="M0 0 C1.32 0 2.64 0 4 0 C4 0.66 4 1.32 4 2 C5.423125 2.37125 5.423125 2.37125 6.875 2.75 C10 4 10 4 11.375 6.125 C11.684375 7.053125 11.684375 7.053125 12 8 C6.25 12 6.25 12 4 12 C3.34 11.01 2.68 10.02 2 9 C1.566875 9.825 1.13375 10.65 0.6875 11.5 C-0.1478125 12.7375 -0.1478125 12.7375 -1 14 C-1.99 14 -2.98 14 -4 14 C-4.33 13.34 -4.66 12.68 -5 12 C-6.97522846 10.95191959 -8.97481509 9.9479589 -11 9 C-10.34 7.02 -9.68 5.04 -9 3 C-7.35 2.67 -5.7 2.34 -4 2 C-4 3.65 -4 5.3 -4 7 C-1.77810176 4.77810176 -1.07401108 2.91517292 0 0 Z M3 5 C3 5.66 3 6.32 3 7 C3.66 6.67 4.32 6.34 5 6 C4.34 5.67 3.68 5.34 3 5 Z " fill="#C1BA7A" transform="translate(22,74)"/>
<path d="M0 0 C1.65 0 3.3 0 5 0 C5 6.6 5 13.2 5 20 C3.02 20 1.04 20 -1 20 C-2.42765939 12.86170305 -2.73739157 6.84347892 0 0 Z " fill="#182558" transform="translate(80,69)"/>
<path d="M0 0 C1.32 0.33 2.64 0.66 4 1 C2.02 4.63 0.04 8.26 -2 12 C-5.69418201 12 -7.77836178 10.71820705 -11 9 C-10.34 7.02 -9.68 5.04 -9 3 C-7.35 2.67 -5.7 2.34 -4 2 C-4 3.65 -4 5.3 -4 7 C-1.77810176 4.77810176 -1.07401108 2.91517292 0 0 Z " fill="#BFBB6B" transform="translate(22,74)"/>
<path d="M0 0 C2.22984785 1.76529621 2.93915901 2.65233722 3.4375 5.5 C3 8 3 8 1.25 9.875 C-1 11 -1 11 -3.1875 10.875 C-4.0846875 10.441875 -4.0846875 10.441875 -5 10 C-6 7 -6 7 -4.75 4.3125 C-4.1725 3.549375 -3.595 2.78625 -3 2 C-2.01 2 -1.02 2 0 2 C0 1.34 0 0.68 0 0 Z " fill="#18C2D7" transform="translate(12,84)"/>
<path d="M0 0 C2.31 0.66 4.62 1.32 7 2 C7.04254356 3.99954746 7.04080783 6.00041636 7 8 C6 9 6 9 3.5625 9.1875 C1 9 1 9 -1 7 C-1.1875 3.9375 -1.1875 3.9375 -1 1 C-0.67 0.67 -0.34 0.34 0 0 Z " fill="#A64EB6" transform="translate(8,65)"/>
<path d="M0 0 C1.65 0 3.3 0 5 0 C5 1.65 5 3.3 5 5 C3.68 4.01 2.36 3.02 1 2 C1 7.94 1 13.88 1 20 C0.34 20 -0.32 20 -1 20 C-2.42765939 12.86170305 -2.73739157 6.84347892 0 0 Z " fill="#1B1F39" transform="translate(80,69)"/>
<path d="M0 0 C0.99 0.33 1.98 0.66 3 1 C3.33 2.65 3.66 4.3 4 6 C2.68 6 1.36 6 0 6 C-1.32 8.31 -2.64 10.62 -4 13 C-4.99 12.67 -5.98 12.34 -7 12 C-6.5875 11.505 -6.175 11.01 -5.75 10.5 C-3.43045732 7.18636761 -1.74164089 3.64241649 0 0 Z " fill="#CDB366" transform="translate(25,75)"/>
<path d="M0 0 C1.32 0.33 2.64 0.66 4 1 C2.02 4.63 0.04 8.26 -2 12 C-2.99 12 -3.98 12 -5 12 C-3.35 8.04 -1.7 4.08 0 0 Z " fill="#E8D87E" transform="translate(22,74)"/>
<path d="M0 0 C6.15234375 -0.09765625 6.15234375 -0.09765625 8 0 C9 1 9 1 9.09765625 2.84765625 C9.04882812 5.92382812 9.04882812 5.92382812 9 9 C8.01 9.495 8.01 9.495 7 10 C7 7.03 7 4.06 7 1 C4.0280615 2.12451727 1.66559313 3.22293791 -1 5 C-0.67 3.35 -0.34 1.7 0 0 Z " fill="#242A4F" transform="translate(118,77)"/>
<path d="M0 0 C1 3 1 3 1 6 C3.97 6.495 3.97 6.495 7 7 C6.67 7.66 6.34 8.32 6 9 C3.625 9.125 3.625 9.125 1 9 C-1 7 -1 7 -1.1875 3.9375 C-1 1 -1 1 0 0 Z " fill="#8C65B4" transform="translate(8,65)"/>
<path d="M0 0 C0.66 0.33 1.32 0.66 2 1 C2.25 3.3125 2.25 3.3125 2 6 C0.25 7.875 0.25 7.875 -2 9 C-4.25 8.6875 -4.25 8.6875 -6 8 C-3 6 -3 6 0 6 C0 4.02 0 2.04 0 0 Z " fill="#1EBEB7" transform="translate(13,86)"/>
<path d="M0 0 C0.66 0.33 1.32 0.66 2 1 C1.50168276 4.68754757 0.89932357 6.60490662 -2 9 C-2.99 8.67 -3.98 8.34 -5 8 C-4.0409375 7.13375 -4.0409375 7.13375 -3.0625 6.25 C-1.01776132 4.01937599 -0.41794801 2.92563609 0 0 Z " fill="#66D47C" transform="translate(15,88)"/>
<path d="M0 0 C3.3 0 6.6 0 10 0 C10 0.33 10 0.66 10 1 C8.906875 1.28875 7.81375 1.5775 6.6875 1.875 C2.95986155 2.81893204 2.95986155 2.81893204 0 5 C0 3.35 0 1.7 0 0 Z " fill="#1E234B" transform="translate(59,69)"/>
<path d="M0 0 C0.33 0 0.66 0 1 0 C1 6.6 1 13.2 1 20 C0.67 20 0.34 20 0 20 C0 13.4 0 6.8 0 0 Z " fill="#1A2552" transform="translate(86,69)"/>
<path d="M0 0 C0.66 0 1.32 0 2 0 C1.45276317 3.37462715 0.9451 5.08235 -1 8 C-1.99 7.67 -2.98 7.34 -4 7 C-3.525625 6.401875 -3.05125 5.80375 -2.5625 5.1875 C-0.83534256 2.99617076 -0.83534256 2.99617076 0 0 Z " fill="#7A9679" transform="translate(22,80)"/>
<path d="M0 0 C1.32 0.33 2.64 0.66 4 1 C3.01 1 2.02 1 1 1 C1 2.65 1 4.3 1 6 C1.99 6.33 2.98 6.66 4 7 C2.68 7 1.36 7 0 7 C0 4.69 0 2.38 0 0 Z " fill="#19264E" transform="translate(66,76)"/>
<path d="M0 0 C3.63 0 7.26 0 11 0 C11 0.33 11 0.66 11 1 C7.37 1 3.74 1 0 1 C0 0.67 0 0.34 0 0 Z " fill="#7ED454" transform="translate(16,100)"/>
<path d="M0 0 C0.99 0.495 0.99 0.495 2 1 C2.625 3.5625 2.625 3.5625 3 6 C2.01 5.67 1.02 5.34 0 5 C0 3.35 0 1.7 0 0 Z " fill="#1B2754" transform="translate(114,77)"/>
<path d="M0 0 C3.63 0 7.26 0 11 0 C11 0.33 11 0.66 11 1 C7.37 1 3.74 1 0 1 C0 0.67 0 0.34 0 0 Z " fill="#C668DE" transform="translate(16,59)"/>
<path d="M0 0 C0.33 0 0.66 0 1 0 C1 2.64 1 5.28 1 8 C-0.42944945 5.64561267 -1.08661261 4.51967567 -0.625 1.75 C-0.41875 1.1725 -0.2125 0.595 0 0 Z " fill="#1A235A" transform="translate(127,70)"/>
<path d="M0 0 C3.3 0 6.6 0 10 0 C10 0.33 10 0.66 10 1 C6.7 1 3.4 1 0 1 C0 0.67 0 0.34 0 0 Z " fill="#1E2648" transform="translate(130,67)"/>
<path d="M0 0 C4.875 1.75 4.875 1.75 6 4 C1.125 2.25 1.125 2.25 0 0 Z " fill="#DDA6A3" transform="translate(26,73)"/>
<path d="M0 0 C2.97 0 5.94 0 9 0 C9 0.33 9 0.66 9 1 C6.03 1 3.06 1 0 1 C0 0.67 0 0.34 0 0 Z " fill="#1F2347" transform="translate(60,67)"/>
<path d="M0 0 C0.66 0.66 1.32 1.32 2 2 C1.625 4.625 1.625 4.625 1 7 C0.67 7 0.34 7 0 7 C0 4.69 0 2.38 0 0 Z " fill="#16245C" transform="translate(94,82)"/>
<path d="M0 0 C0.33 0 0.66 0 1 0 C1 2.64 1 5.28 1 8 C0.67 8 0.34 8 0 8 C0 5.36 0 2.72 0 0 Z " fill="#5CE0E5" transform="translate(0,76)"/>
<path d="M0 0 C2.31 0.33 4.62 0.66 7 1 C4 2 4 2 1.8125 1.0625 C1.214375 0.711875 0.61625 0.36125 0 0 Z " fill="#C98AB9" transform="translate(19,71)"/>
<path d="M0 0 C2.31 0 4.62 0 7 0 C7 0.33 7 0.66 7 1 C4.69 1 2.38 1 0 1 C0 0.67 0 0.34 0 0 Z " fill="#1C2648" transform="translate(144,67)"/>
<path d="M0 0 C0.99 1.485 0.99 1.485 2 3 C1.34 3.66 0.68 4.32 0 5 C0 3.35 0 1.7 0 0 Z " fill="#192557" transform="translate(107,84)"/>
<path d="M0 0 C0.33 0 0.66 0 1 0 C1 1.65 1 3.3 1 5 C0.34 4.01 -0.32 3.02 -1 2 C-0.67 1.34 -0.34 0.68 0 0 Z " fill="#18264F" transform="translate(57,84)"/>
<path d="M0 0 C0.33 0 0.66 0 1 0 C1 1.98 1 3.96 1 6 C0.67 6 0.34 6 0 6 C0 4.02 0 2.04 0 0 Z " fill="#162655" transform="translate(158,73)"/>
<path d="M0 0 C0.33 0.66 0.66 1.32 1 2 C0.01 3.485 0.01 3.485 -1 5 C-0.67 3.35 -0.34 1.7 0 0 Z " fill="#3D366A" transform="translate(36,73)"/>
<path d="M0 0 C0.99 1.485 0.99 1.485 2 3 C1.34 3.66 0.68 4.32 0 5 C0 3.35 0 1.7 0 0 Z " fill="#1A2554" transform="translate(107,70)"/>
<path d="M0 0 C0.33 0 0.66 0 1 0 C1 1.65 1 3.3 1 5 C0.34 4.01 -0.32 3.02 -1 2 C-0.67 1.34 -0.34 0.68 0 0 Z " fill="#1B2250" transform="translate(57,70)"/>
<path d="M0 0 C1.98 0 3.96 0 6 0 C6 0.33 6 0.66 6 1 C4.02 1 2.04 1 0 1 C0 0.67 0 0.34 0 0 Z " fill="#1A225C" transform="translate(115,67)"/>
<path d="M0 0 C1.98 0 3.96 0 6 0 C6 0.33 6 0.66 6 1 C4.02 1 2.04 1 0 1 C0 0.67 0 0.34 0 0 Z " fill="#19235D" transform="translate(44,67)"/>
<path d="M0 0 C1.65 0 3.3 0 5 0 C5 0.33 5 0.66 5 1 C3.35 1 1.7 1 0 1 C0 0.67 0 0.34 0 0 Z " fill="#121638" transform="translate(115,91)"/>
<path d="M0 0 C0.33 0 0.66 0 1 0 C1 1.65 1 3.3 1 5 C0.67 5 0.34 5 0 5 C0 3.35 0 1.7 0 0 Z " fill="#192756" transform="translate(70,77)"/>
<path d="M0 0 C0.66 0.66 1.32 1.32 2 2 C1.01 2.33 0.02 2.66 -1 3 C-0.67 2.01 -0.34 1.02 0 0 Z " fill="#C5B6B3" transform="translate(15,73)"/>
<path d="M0 0 C4 1 4 1 4 1 Z " fill="#101636" transform="translate(45,91)"/>
<path d="M0 0 C0.66 0.66 1.32 1.32 2 2 C1.01 1.67 0.02 1.34 -1 1 C-0.67 0.67 -0.34 0.34 0 0 Z " fill="#6BC76D" transform="translate(22,87)"/>
<path d="M0 0 C0 3 0 3 0 3 Z " fill="#182657" transform="translate(127,86)"/>
<path d="M0 0 C1 4 1 4 1 4 Z " fill="#334361" transform="translate(35,80)"/>
<path d="M0 0 C4 1 4 1 4 1 Z " fill="#1A2647" transform="translate(101,67)"/>
<path d="M0 0 C4 1 4 1 4 1 Z " fill="#1D2744" transform="translate(80,67)"/>
<path d="M0 0 C3 1 3 1 3 1 Z " fill="#1A215F" transform="translate(69,90)"/>
<path d="M0 0 C0.66 0.66 1.32 1.32 2 2 C1.34 2 0.68 2 0 2 C0 1.34 0 0.68 0 0 Z " fill="#1C234F" transform="translate(44,81)"/>
<path d="M0 0 C0.33 0.66 0.66 1.32 1 2 C0.34 1.67 -0.32 1.34 -1 1 C-0.67 0.67 -0.34 0.34 0 0 Z " fill="#192154" transform="translate(49,81)"/>
<path d="M0 0 C0.99 0.495 0.99 0.495 2 1 C1.01 1.495 1.01 1.495 0 2 C0 1.34 0 0.68 0 0 Z " fill="#16225A" transform="translate(44,76)"/>
<path d="" fill="#F7DC5E" transform="translate(0,0)"/>
<path d="M0 0 C0.66 0 1.32 0 2 0 C1.67 0.66 1.34 1.32 1 2 C0.67 1.34 0.34 0.68 0 0 Z " fill="#182554" transform="translate(48,76)"/>
<path d="M0 0 C0.99 0.495 0.99 0.495 2 1 C1.01 1.495 1.01 1.495 0 2 C0 1.34 0 0.68 0 0 Z " fill="#64448E" transform="translate(37,71)"/>
<path d="M0 0 C3 1 3 1 3 1 Z " fill="#192555" transform="translate(88,67)"/>
<path d="M0 0 C2 1 2 1 2 1 Z " fill="#80D268" transform="translate(28,99)"/>
<path d="M0 0 C2 1 2 1 2 1 Z " fill="#86C86C" transform="translate(13,99)"/>
<path d="M0 0 C2 1 2 1 2 1 Z " fill="#77CC5D" transform="translate(11,98)"/>
<path d="M0 0 C2 1 2 1 2 1 Z " fill="#3CBEA1" transform="translate(8,96)"/>
<path d="" fill="#26CED5" transform="translate(0,0)"/>
<path d="" fill="#89CC64" transform="translate(0,0)"/>
<path d="M0 0 C2 1 2 1 2 1 Z " fill="#121734" transform="translate(103,91)"/>
<path d="M0 0 C2 1 2 1 2 1 Z " fill="#16245D" transform="translate(121,90)"/>
<path d="M0 0 C2 1 2 1 2 1 Z " fill="#1B2059" transform="translate(112,90)"/>
<path d="M0 0 C2 1 2 1 2 1 Z " fill="#182451" transform="translate(50,90)"/>
<path d="M0 0 C2 1 2 1 2 1 Z " fill="#1B2356" transform="translate(42,90)"/>
<path d="M0 0 C2 1 2 1 2 1 Z " fill="#122054" transform="translate(123,89)"/>
<path d="M0 0 C2 1 2 1 2 1 Z " fill="#192258" transform="translate(52,89)"/>
<path d="M0 0 C2 1 2 1 2 1 Z " fill="#1D2853" transform="translate(40,89)"/>
<path d="" fill="#192264" transform="translate(0,0)"/>
<path d="" fill="#132048" transform="translate(0,0)"/>
<path d="M0 0 C2 1 2 1 2 1 Z " fill="#85D162" transform="translate(24,87)"/>
<path d="" fill="#1C235C" transform="translate(0,0)"/>
<path d="" fill="#538A7C" transform="translate(0,0)"/>
<path d="" fill="#5BE1E1" transform="translate(0,0)"/>
<path d="M0 0 C2 1 2 1 2 1 Z " fill="#72B480" transform="translate(32,84)"/>
<path d="" fill="#152557" transform="translate(0,0)"/>
<path d="M0 0 C2 1 2 1 2 1 Z " fill="#172258" transform="translate(115,76)"/>
<path d="M0 0 C2 1 2 1 2 1 Z " fill="#B87CBC" transform="translate(32,75)"/>
<path d="" fill="#5AE0E6" transform="translate(0,0)"/>
<path d="M0 0 C2 1 2 1 2 1 Z " fill="#BC64D7" transform="translate(16,72)"/>
<path d="M0 0 C2 1 2 1 2 1 Z " fill="#1A2961" transform="translate(72,69)"/>
<path d="M0 0 C2 1 2 1 2 1 Z " fill="#222854" transform="translate(152,68)"/>
<path d="M0 0 C2 1 2 1 2 1 Z " fill="#1C274F" transform="translate(70,68)"/>
<path d="M0 0 C2 1 2 1 2 1 Z " fill="#C06EE3" transform="translate(11,61)"/>
<path d="M0 0 C2 1 2 1 2 1 Z " fill="#C36FDF" transform="translate(28,60)"/>
<path d="M0 0 C2 1 2 1 2 1 Z " fill="#AF7CC2" transform="translate(13,60)"/>
<path d="" fill="#6EC757" transform="translate(0,0)"/>
<path d="" fill="#76C45A" transform="translate(0,0)"/>
<path d="" fill="#6BC77B" transform="translate(0,0)"/>
<path d="" fill="#76C652" transform="translate(0,0)"/>
<path d="" fill="#8CD16E" transform="translate(0,0)"/>
<path d="" fill="#3CB6A1" transform="translate(0,0)"/>
<path d="" fill="#28C7BB" transform="translate(0,0)"/>
<path d="" fill="#4ACCD7" transform="translate(0,0)"/>
<path d="" fill="#161E42" transform="translate(0,0)"/>
<path d="" fill="#91BF74" transform="translate(0,0)"/>
<path d="" fill="#5ADFE4" transform="translate(0,0)"/>
<path d="" fill="#1D2764" transform="translate(0,0)"/>
<path d="" fill="#1D2239" transform="translate(0,0)"/>
<path d="" fill="#15235C" transform="translate(0,0)"/>
<path d="" fill="#1A2B5B" transform="translate(0,0)"/>
<path d="" fill="#1D2A57" transform="translate(0,0)"/>
<path d="" fill="#18274B" transform="translate(0,0)"/>
<path d="" fill="#12255A" transform="translate(0,0)"/>
<path d="" fill="#16245F" transform="translate(0,0)"/>
<path d="" fill="#232A53" transform="translate(0,0)"/>
<path d="" fill="#ACA8B2" transform="translate(0,0)"/>
<path d="" fill="#6FD4DB" transform="translate(0,0)"/>
<path d="" fill="#1E2C55" transform="translate(0,0)"/>
<path d="" fill="#152550" transform="translate(0,0)"/>
<path d="" fill="#152458" transform="translate(0,0)"/>
<path d="" fill="#14235E" transform="translate(0,0)"/>
<path d="" fill="#292944" transform="translate(0,0)"/>
<path d="" fill="#35B8A2" transform="translate(0,0)"/>
<path d="" fill="#162653" transform="translate(0,0)"/>
<path d="" fill="#142352" transform="translate(0,0)"/>
<path d="" fill="#20204E" transform="translate(0,0)"/>
<path d="" fill="#38B2B8" transform="translate(0,0)"/>
<path d="" fill="#1D243F" transform="translate(0,0)"/>
<path d="" fill="#97C98F" transform="translate(0,0)"/>
<path d="" fill="#1C2554" transform="translate(0,0)"/>
<path d="" fill="#18255E" transform="translate(0,0)"/>
<path d="" fill="#1A2D44" transform="translate(0,0)"/>
<path d="" fill="#6A7C70" transform="translate(0,0)"/>
<path d="" fill="#1D244D" transform="translate(0,0)"/>
<path d="" fill="#152753" transform="translate(0,0)"/>
<path d="" fill="#12294F" transform="translate(0,0)"/>
<path d="" fill="#20253F" transform="translate(0,0)"/>
<path d="" fill="#CCC97F" transform="translate(0,0)"/>
<path d="" fill="#182548" transform="translate(0,0)"/>
<path d="" fill="#1F2758" transform="translate(0,0)"/>
<path d="" fill="#232540" transform="translate(0,0)"/>
<path d="" fill="#192750" transform="translate(0,0)"/>
<path d="" fill="#F1DE75" transform="translate(0,0)"/>
<path d="" fill="#19274E" transform="translate(0,0)"/>
<path d="" fill="#1B2556" transform="translate(0,0)"/>
<path d="" fill="#1D2045" transform="translate(0,0)"/>
<path d="" fill="#192A42" transform="translate(0,0)"/>
<path d="" fill="#1D275A" transform="translate(0,0)"/>
<path d="" fill="#172358" transform="translate(0,0)"/>
<path d="" fill="#1D2D63" transform="translate(0,0)"/>
<path d="" fill="#1C2858" transform="translate(0,0)"/>
<path d="" fill="#1D2562" transform="translate(0,0)"/>
<path d="" fill="#1B245A" transform="translate(0,0)"/>
<path d="" fill="#1B245A" transform="translate(0,0)"/>
<path d="" fill="#69D3DB" transform="translate(0,0)"/>
<path d="" fill="#252E67" transform="translate(0,0)"/>
<path d="" fill="#1B2650" transform="translate(0,0)"/>
<path d="" fill="#212959" transform="translate(0,0)"/>
<path d="" fill="#21295B" transform="translate(0,0)"/>
<path d="" fill="#1F295F" transform="translate(0,0)"/>
<path d="" fill="#1C2659" transform="translate(0,0)"/>
<path d="" fill="#22215F" transform="translate(0,0)"/>
<path d="" fill="#212861" transform="translate(0,0)"/>
<path d="" fill="#1B2554" transform="translate(0,0)"/>
<path d="" fill="#1F295F" transform="translate(0,0)"/>
<path d="" fill="#1E2559" transform="translate(0,0)"/>
<path d="" fill="#242862" transform="translate(0,0)"/>
<path d="" fill="#6ECEE9" transform="translate(0,0)"/>
<path d="" fill="#1F264F" transform="translate(0,0)"/>
<path d="" fill="#23255E" transform="translate(0,0)"/>
<path d="" fill="#1F233F" transform="translate(0,0)"/>
<path d="" fill="#1C2657" transform="translate(0,0)"/>
<path d="" fill="#73BFE1" transform="translate(0,0)"/>
<path d="" fill="#B36ED3" transform="translate(0,0)"/>
<path d="" fill="#886AB4" transform="translate(0,0)"/>
<path d="" fill="#976DBB" transform="translate(0,0)"/>
<path d="" fill="#BF75E2" transform="translate(0,0)"/>
<path d="" fill="#9366AC" transform="translate(0,0)"/>
<path d="" fill="#C76DE2" transform="translate(0,0)"/>
<path d="" fill="#B869D3" transform="translate(0,0)"/>
<path d="" fill="#C76DE2" transform="translate(0,0)"/>
<path d="" fill="#BF75E0" transform="translate(0,0)"/>
<path d="" fill="#C86CE4" transform="translate(0,0)"/>
</svg>
