<?xml version="1.0" encoding="UTF-8"?>
<svg version="1.1" xmlns="http://www.w3.org/2000/svg" width="1024" height="917">
<path d="M0 0 C337.92 0 675.84 0 1024 0 C1024 302.61 1024 605.22 1024 917 C686.08 917 348.16 917 0 917 C0 614.39 0 311.78 0 0 Z " fill="#FEFEFE" transform="translate(0,0)"/>
<path d="M0 0 C2.24609375 2.07421875 2.24609375 2.07421875 4 4 C5.36125 4.7734375 5.36125 4.7734375 6.75 5.5625 C7.4925 6.036875 8.235 6.51125 9 7 C9 7.99 9 8.98 9 10 C8.4225 10.556875 7.845 11.11375 7.25 11.6875 C4.70679115 14.30135354 3.50178563 16.80072828 2.02734375 20.09765625 C1 22 1 22 -0.50390625 23.4921875 C-2.24198587 25.24388133 -2.94115812 26.78574391 -3.875 29.0625 C-5.26016767 32.34371467 -6.76365369 35.4819469 -8.4375 38.625 C-11.74986398 45.12628583 -13.82442377 52.05667161 -16 59 C-16.66 59 -17.32 59 -18 59 C-18.10957031 59.969375 -18.21914063 60.93875 -18.33203125 61.9375 C-18.49190213 63.29170039 -18.65207544 64.64586509 -18.8125 66 C-19.03873047 67.9490625 -19.03873047 67.9490625 -19.26953125 69.9375 C-19.72328921 73.47099562 -20.39819251 76.92422845 -21.1333313 80.40925598 C-23.12503335 90.08358383 -23.51081771 99.45627241 -23.4375 109.3125 C-23.43578796 110.13106476 -23.43407593 110.94962952 -23.43231201 111.79299927 C-23.37480957 127.90443887 -22.52145303 144.44612496 -17.8671875 159.97265625 C-17 163 -17 163 -17 167 C-16.34 167 -15.68 167 -15 167 C-14.6596875 168.20914063 -14.319375 169.41828125 -13.96875 170.6640625 C-10.82013323 181.44652716 -7.00021971 190.50264625 -1 200 C0.10705928 201.87329357 1.21151292 203.7481312 2.3125 205.625 C3.67444687 207.91182196 5.01750365 210.02208404 6.671875 212.109375 C8 214 8 214 7.9375 216.625 C7 219 7 219 5.125 220.3125 C3 221 3 221 0 221 C0 221.66 0 222.32 0 223 C-19.52731761 231.68370557 -38.43898378 232.31352762 -58.37109375 224.71484375 C-65.91480605 221.66974998 -71.83185242 218.24647036 -78 213 C-80.14358686 211.43437683 -82.30064992 209.89081077 -84.46875 208.359375 C-86 207 -86 207 -87 204 C-88.051875 203.6596875 -88.051875 203.6596875 -89.125 203.3125 C-96.51248788 199.93995119 -101.8763498 190.74323347 -106 184 C-106 183.34 -106 182.68 -106 182 C-106.66 182 -107.32 182 -108 182 C-109.78960397 178.73911542 -111.55297502 175.46469848 -113.3125 172.1875 C-113.81201172 171.27806641 -114.31152344 170.36863281 -114.82617188 169.43164062 C-117.8036204 163.85138942 -119.9217171 158.54266966 -121.39111328 152.38525391 C-121.95037494 150.19440131 -122.67460061 148.26108657 -123.5625 146.1875 C-127.45134996 136.11702535 -127.35004947 124.6412587 -127.31567383 113.98608398 C-127.3124959 111.93485086 -127.33616326 109.88504294 -127.36132812 107.83398438 C-127.4044073 99.16376367 -126.35031954 91.34184148 -124 83 C-123.71278076 81.94530518 -123.42556152 80.89061035 -123.12963867 79.80395508 C-122.2604679 76.67287483 -121.3554536 73.55459405 -120.4375 70.4375 C-120.13392578 69.38498047 -119.83035156 68.33246094 -119.51757812 67.24804688 C-119.22173828 66.23677734 -118.92589844 65.22550781 -118.62109375 64.18359375 C-118.3573999 63.28181396 -118.09370605 62.38003418 -117.82202148 61.45092773 C-117.0555456 59.16561398 -116.13737342 57.12118135 -115 55 C-114.34 55 -113.68 55 -113 55 C-112.773125 54.030625 -112.54625 53.06125 -112.3125 52.0625 C-108.89031992 40.25122571 -99.67110971 29.43190669 -91 21 C-90.34 21 -89.68 21 -89 21 C-88.731875 20.360625 -88.46375 19.72125 -88.1875 19.0625 C-87 17 -87 17 -84 16 C-82.31126121 14.35570171 -80.64694485 12.68615782 -79 11 C-73.22311007 5.56292712 -64.937735 1.64360014 -57 1 C-57 0.34 -57 -0.32 -57 -1 C-56.43152344 -1.12117188 -55.86304688 -1.24234375 -55.27734375 -1.3671875 C-54.50519531 -1.53476562 -53.73304688 -1.70234375 -52.9375 -1.875 C-52.18339844 -2.03742188 -51.42929687 -2.19984375 -50.65234375 -2.3671875 C-47.90571798 -2.97862458 -47.90571798 -2.97862458 -44.9375 -4.04296875 C-31.1829257 -7.99669026 -12.80320168 -6.31026802 0 0 Z " fill="#32B456" transform="translate(491,292)"/>
<path d="M0 0 C0 0.99 0 1.98 0 3 C1.85625 3.309375 1.85625 3.309375 3.75 3.625 C9.99926076 4.98050154 15.40620597 7.99014129 21 11 C21 11.66 21 12.32 21 13 C21.70382812 13.23460937 22.40765625 13.46921875 23.1328125 13.7109375 C31.71090969 17.5675752 39.29117361 25.65428263 45 33 C45.66773438 33.85464844 46.33546875 34.70929688 47.0234375 35.58984375 C50.97769442 40.83033666 54.25915144 46.03136242 56.9921875 52.00390625 C57.94893876 54.15728515 57.94893876 54.15728515 60 56 C60.82202148 58.01196289 60.82202148 58.01196289 61.62109375 60.47265625 C62.06485352 61.82327148 62.06485352 61.82327148 62.51757812 63.20117188 C62.82115234 64.14541016 63.12472656 65.08964844 63.4375 66.0625 C63.88706055 67.43825195 63.88706055 67.43825195 64.34570312 68.84179688 C64.94536566 70.67720651 65.54091724 72.51396442 66.13232422 74.35205078 C66.68693165 76.04458658 67.25977928 77.73132386 67.85595703 79.40966797 C68.12134277 80.16006348 68.38672852 80.91045898 68.66015625 81.68359375 C68.89484619 82.3273999 69.12953613 82.97120605 69.37133789 83.63452148 C70.98405648 89.70272747 71.17868511 95.96256895 71.2734375 102.20703125 C71.28582962 102.9664653 71.29822174 103.72589935 71.31098938 104.50834656 C71.34311879 106.94310945 71.36213307 109.37756132 71.375 111.8125 C71.37956207 112.63959473 71.38412415 113.46668945 71.38882446 114.31884766 C71.41598971 128.04346507 71.43099989 143.38299244 63 155 C62.01 155.33 61.02 155.66 60 156 C56 152 56 152 54.0625 150 C51.96306151 147.8895513 51.96306151 147.8895513 49.25 145.875 C48.5075 145.25625 47.765 144.6375 47 144 C47 143.34 47 142.68 47 142 C46.0409375 141.814375 46.0409375 141.814375 45.0625 141.625 C44.381875 141.41875 43.70125 141.2125 43 141 C42.67 140.34 42.34 139.68 42 139 C38.7730111 137.67679953 35.49372676 136.5577327 32.19921875 135.4140625 C28.95901502 133.98188454 27.38036246 132.55224859 25 130 C21.86649283 128.73215876 21.86649283 128.73215876 19 128 C19 127.34 19 126.68 19 126 C12.06392339 123.45677191 5.30645606 122.05084393 -2 121 C-2 120.34 -2 119.68 -2 119 C-7.3893909 118.95023646 -12.77864544 118.91410953 -18.16821289 118.89013672 C-19.99831475 118.88013352 -21.82840084 118.86652665 -23.65844727 118.84912109 C-26.30228588 118.82462109 -28.94591157 118.81345987 -31.58984375 118.8046875 C-32.39646957 118.79436493 -33.2030954 118.78404236 -34.03416443 118.77340698 C-42.60569297 118.77174722 -50.3468696 120.98190707 -58.4375 123.625 C-65.7426264 126 -65.7426264 126 -68 126 C-68 126.66 -68 127.32 -68 128 C-69.19882812 128.4021875 -69.19882812 128.4021875 -70.421875 128.8125 C-82.99840079 133.29989887 -92.78329747 140.57166308 -103 149 C-103.8765625 149.67160156 -104.753125 150.34320313 -105.65625 151.03515625 C-108.20799572 152.97855886 -108.20799572 152.97855886 -110.0625 156.1875 C-112 159 -112 159 -114.12109375 159.67578125 C-115.05115234 159.83626953 -115.05115234 159.83626953 -116 160 C-118.17990801 154.75894458 -120.2452657 149.48153608 -122.125 144.125 C-122.43695313 143.24070312 -122.74890625 142.35640625 -123.0703125 141.4453125 C-125.68447762 131.75752411 -126.32318033 122.23312676 -126.26074219 112.23461914 C-126.24992074 110.1723962 -126.26075755 108.11102657 -126.2734375 106.04882812 C-126.27211721 104.71353978 -126.26955751 103.37825196 -126.265625 102.04296875 C-126.26336914 100.85727295 -126.26111328 99.67157715 -126.25878906 98.44995117 C-125.97903945 94.72057209 -125.12697748 91.55950913 -124 88 C-123.50539511 86.20414526 -123.01430075 84.40731859 -122.52734375 82.609375 C-122.26759766 81.65289062 -122.00785156 80.69640625 -121.74023438 79.7109375 C-121.20086463 77.72143744 -120.66180689 75.73185277 -120.12304688 73.7421875 C-119.86458984 72.79085937 -119.60613281 71.83953125 -119.33984375 70.859375 C-118.98974243 69.56725098 -118.98974243 69.56725098 -118.63256836 68.24902344 C-118.13644579 66.48511717 -117.57943964 64.73831891 -117 63 C-116.01 62.505 -116.01 62.505 -115 62 C-114.30366328 60.1642032 -113.6696261 58.30469914 -113.0625 56.4375 C-106.9905521 40.16825137 -94.4373254 25.72980461 -81 15 C-80.2265625 14.36578125 -79.453125 13.7315625 -78.65625 13.078125 C-56.01455854 -4.51692439 -27.33992822 -7.10710078 0 0 Z " fill="#4B7ABD" transform="translate(491,134)"/>
<path d="M0 0 C1.2989839 0.90626784 2.58893167 1.82549537 3.875 2.75 C4.59429687 3.26046875 5.31359375 3.7709375 6.0546875 4.296875 C8.10033496 6.08784346 8.85109607 7.57964238 10 10 C10.721875 10.28875 11.44375 10.5775 12.1875 10.875 C15 12 15 12 17.875 14.5625 C28.48124454 24.01338021 43.43417858 31.82465933 57.0390625 35.45703125 C59 36 59 36 61 37 C81.56629169 40.50445518 105.22201978 41.73507886 124.64453125 32.9765625 C128.26888615 31.4739278 132.03777045 30.61932542 135.84765625 29.7109375 C136.91306641 29.35902344 136.91306641 29.35902344 138 29 C138.33 28.34 138.66 27.68 139 27 C140.98748052 25.97534338 142.99029266 24.98034504 145 24 C147.29629917 22.61091399 149.56111989 21.20750846 151.8125 19.75 C152.42561035 19.35377441 153.0387207 18.95754883 153.67041016 18.54931641 C161.66028508 13.32848044 168.8988973 7.36583866 176 1 C179.4911134 4.03923651 180.79796441 6.50888836 182.0625 10.9375 C182.51302734 12.46697266 182.51302734 12.46697266 182.97265625 14.02734375 C183.3174994 15.35094077 183.65955447 16.67526504 184 18 C184.38273071 19.37720215 184.38273071 19.37720215 184.77319336 20.78222656 C186.85619066 28.82169132 187.49843643 36.55470907 187.44604492 44.82861328 C187.4375324 46.86724075 187.46643499 48.90305258 187.49804688 50.94140625 C187.54822628 60.57121771 185.83440181 68.80102864 183 78 C182.42976526 80.08122953 181.86577766 82.16419851 181.3125 84.25 C180.60260151 86.86750282 179.85806128 89.42581617 179 92 C178.34 92 177.68 92 177 92 C176.8453125 93.051875 176.8453125 93.051875 176.6875 94.125 C175.89594332 97.43514611 174.59301107 99.99097909 173 103 C172.566875 103.91265625 172.566875 103.91265625 172.125 104.84375 C169.55229902 110.24642206 166.42403683 115.10062933 163 120 C162.37867188 120.91394531 161.75734375 121.82789063 161.1171875 122.76953125 C156.94907259 128.74382929 152.62650808 133.41028667 147 138 C145.9790625 139.051875 145.9790625 139.051875 144.9375 140.125 C137.83333333 147 137.83333333 147 134 147 C134 147.66 134 148.32 134 149 C130.48346108 151.6169592 127.1013745 153.49949713 123 155 C121.97390625 155.46921875 120.9478125 155.9384375 119.890625 156.421875 C99.3305692 165.24020516 77.61201838 163.3271058 57.0859375 155.953125 C52.69647267 154.11286827 48.7585671 151.68355163 44.77734375 149.08984375 C42.91253771 147.87597663 42.91253771 147.87597663 40.3125 146.9375 C35.27963603 144.89714974 31.76610846 140.78236505 28 137 C27.03378985 136.05472275 26.06630969 135.11074213 25.09765625 134.16796875 C19.56116187 128.74955981 14.37279199 123.42667914 10 117 C9.51273437 116.36449219 9.02546875 115.72898437 8.5234375 115.07421875 C4.54605187 109.65885524 2.27639752 103.97110289 0.09179688 97.671875 C-0.91170211 94.79349136 -1.87097984 92.19761315 -3.54296875 89.63671875 C-5.73686504 85.66653109 -6.31795327 81.49480067 -7.125 77.0625 C-7.29386719 76.18142578 -7.46273438 75.30035156 -7.63671875 74.39257812 C-8.10514975 71.93054903 -8.56159908 69.46754973 -9 67 C-9.17869629 66.04641602 -9.35739258 65.09283203 -9.54150391 64.11035156 C-12.4722282 44.22886729 -10.88063144 21.52148405 -3 3 C-2.34 3 -1.68 3 -1 3 C-0.67 2.01 -0.34 1.02 0 0 Z " fill="#73C7A7" transform="translate(502,360)"/>
<path d="M0 0 C0 0.66 0 1.32 0 2 C0.6290625 2.15855469 1.258125 2.31710938 1.90625 2.48046875 C8.05085934 4.15543003 12.79725752 6.37505658 18 10 C18.72316406 10.45761719 19.44632813 10.91523438 20.19140625 11.38671875 C34.01960651 20.43086291 49.21094327 33.66372526 54 50 C54.66 50 55.32 50 56 50 C59.55511257 56.45456912 62.03185925 62.82243236 64.0078125 69.921875 C64.91077062 73.034132 64.91077062 73.034132 66.51171875 75.8359375 C76.87106563 97.85974583 72.52767483 133.68391433 65 156 C64.34 156 63.68 156 63 156 C62.835 157.155 62.67 158.31 62.5 159.5 C59.94494106 170.97058376 53.01011161 181.7647217 46 191 C45.29810547 192.00546875 45.29810547 192.00546875 44.58203125 193.03125 C38.04239485 202.26367786 27.51336952 214.84516373 16.17578125 217.71484375 C15.45777344 217.80894531 14.73976563 217.90304687 14 218 C14 218.66 14 219.32 14 220 C12.73308493 220.67408308 11.46129251 221.33900497 10.1875 222 C9.47980469 222.37125 8.77210938 222.7425 8.04296875 223.125 C6 224 6 224 3 224 C3 224.66 3 225.32 3 226 C-2.11478084 228.44038563 -6.5653605 229.63029321 -12.1875 230.1875 C-12.93435059 230.26645508 -13.68120117 230.34541016 -14.45068359 230.42675781 C-27.15639856 231.68831816 -43.62904473 232.76842576 -55 226 C-55.33 225.01 -55.66 224.02 -56 223 C-56.9075 222.9175 -57.815 222.835 -58.75 222.75 C-62.40077839 221.90751268 -63.63384583 220.82118382 -66 218 C-64.53305295 214.91019848 -62.81432743 212.10739212 -60.9375 209.25 C-57.87626626 204.48166317 -55.02381313 199.62605997 -52.25 194.6875 C-51.87351318 194.0181543 -51.49702637 193.34880859 -51.10913086 192.65917969 C-48.96756978 188.82072192 -46.93929242 184.94584355 -45 181 C-44.67257812 180.37738281 -44.34515625 179.75476563 -44.0078125 179.11328125 C-40.30411595 171.5583958 -38.58766524 163.30323156 -36.56494141 155.18017578 C-36.06676253 153.25764452 -35.499464 151.3533091 -34.921875 149.453125 C-29.50143502 129.14944303 -30.25237357 104.6397615 -33.5625 84.06640625 C-33.99995939 81.00028465 -34.07463061 78.09250579 -34 75 C-34.66 75 -35.32 75 -36 75 C-36.12528076 74.42668945 -36.25056152 73.85337891 -36.37963867 73.26269531 C-38.78177674 62.39914845 -41.30754843 52.1327626 -46 42 C-46.83784563 39.91847726 -47.67113445 37.83511489 -48.5 35.75 C-50.56430219 30.79567474 -53.01814845 26.44499609 -56 22 C-56.8787608 20.58566309 -57.75377939 19.16899404 -58.625 17.75 C-59.94709502 15.61879951 -61.26199904 13.66572536 -62.8125 11.6875 C-64 10 -64 10 -64 7 C-45.53656617 -3.92733839 -20.72560332 -6.90853444 0 0 Z " fill="#68C9CD" transform="translate(617,133)"/>
<path d="M0 0 C3.36479898 0.62005041 6.61295946 0.72715806 10.03320312 0.82568359 C10.71420578 0.84646469 11.39520844 0.86724579 12.09684753 0.88865662 C14.25652696 0.95365612 16.41632033 1.01280447 18.57617188 1.07177734 C20.04688644 1.11500984 21.51758978 1.15862559 22.98828125 1.20263672 C26.57996343 1.31000229 30.171741 1.40944248 33.76367188 1.50927734 C33.76367188 8.43927734 33.76367188 15.36927734 33.76367188 22.50927734 C29.47367187 22.50927734 25.18367188 22.50927734 20.76367188 22.50927734 C21.75367188 24.98427734 21.75367188 24.98427734 22.76367188 27.50927734 C23.82029917 38.94788217 22.91985867 48.46871921 15.70117188 57.82177734 C9.9199401 63.78442853 3.915002 66.50542731 -4.39257812 66.81005859 C-9.34876832 66.8697876 -14.28517856 66.72749647 -19.23632812 66.50927734 C-20.60585485 69.2483308 -20.36254174 71.48015067 -20.23632812 74.50927734 C-19.74132812 75.49927734 -19.74132812 75.49927734 -19.23632812 76.50927734 C-15.87587447 77.62942856 -13.30813989 77.63528803 -9.76757812 77.64990234 C-8.47335937 77.66923828 -7.17914063 77.68857422 -5.84570312 77.70849609 C-3.80310373 77.73721711 -1.76156307 77.75927124 0.28125 77.75976562 C9.586761 77.77568414 16.66473769 78.82024355 24.76367188 83.50927734 C25.66150391 83.99299805 26.55933594 84.47671875 27.484375 84.97509766 C30.52865155 87.02418012 30.91221761 89.02605536 31.76367188 92.50927734 C32.42367187 92.50927734 33.08367187 92.50927734 33.76367188 92.50927734 C35.93005251 99.00841926 35.82811507 107.5313521 33.51367188 114.00927734 C28.74389398 123.54883313 21.81334682 129.72115153 11.76367188 133.50927734 C10.77367187 133.50927734 9.78367187 133.50927734 8.76367188 133.50927734 C8.76367188 134.16927734 8.76367188 134.82927734 8.76367188 135.50927734 C2.70946418 136.90082485 -3.30225909 136.73282143 -9.48632812 136.75927734 C-11.27103516 136.79021484 -11.27103516 136.79021484 -13.09179688 136.82177734 C-23.29855725 136.8668901 -30.97494877 135.65089553 -38.50585938 128.45068359 C-43.54557088 122.7966506 -44.87457431 117.58562344 -44.55273438 110.04833984 C-43.77214824 103.784377 -39.74556746 98.75474502 -35.23632812 94.50927734 C-34.57632812 94.50927734 -33.91632813 94.50927734 -33.23632812 94.50927734 C-33.85507812 93.78740234 -34.47382813 93.06552734 -35.11132812 92.32177734 C-38.77273902 87.47579234 -39.52913701 83.61694885 -39.54882812 77.57177734 C-39.56558594 76.38712891 -39.58234375 75.20248047 -39.59960938 73.98193359 C-38.97437938 68.00527265 -36.4415959 64.57436952 -32.23632812 60.50927734 C-31.90632813 59.51927734 -31.57632812 58.52927734 -31.23632812 57.50927734 C-31.8525 57.25404297 -32.46867187 56.99880859 -33.10351562 56.73583984 C-37.57464507 54.16453097 -38.85542568 48.5948493 -40.48632812 43.94677734 C-43.06994353 31.88200448 -41.49698855 21.08874368 -35.07226562 10.61083984 C-30.90449649 5.02546215 -24.34818773 1.20616647 -17.58007812 -0.21728516 C-11.86974075 -0.88349118 -5.64108972 -1.23783737 0 0 Z " fill="#373737" transform="translate(409.236328125,625.49072265625)"/>
<path d="M0 0 C11.70241679 -0.66101517 20.99173216 -0.96363098 31 6 C31.73347656 6.47179687 32.46695313 6.94359375 33.22265625 7.4296875 C41.06887662 13.26521941 46.539144 24.26074023 48.66015625 33.68530273 C49.39708186 38.70454964 49.32702279 43.74985392 49.3125 48.8125 C49.32861328 49.92431641 49.34472656 51.03613281 49.36132812 52.18164062 C49.37094979 68.62506456 43.4073238 79.93107916 31.95703125 91.57421875 C29.6527772 93.25296671 27.8022046 93.63702013 25 94 C24.505 95.485 24.505 95.485 24 97 C15.6100219 100.71095185 4.8661632 100.1050966 -3.6953125 97.1015625 C-8.01921642 95.034883 -11.48564381 92.22640149 -15 89 C-15.64066406 88.43667969 -16.28132813 87.87335938 -16.94140625 87.29296875 C-22.1709638 82.10859096 -23.9456984 76.18896709 -25.95703125 69.29296875 C-26.86210526 65.90613234 -26.86210526 65.90613234 -29 63 C-31.09126117 46.85313085 -29.93635851 27.35639584 -19.72265625 13.9296875 C-13.6974677 7.18038332 -9.14698166 3.16152148 0 2 C0 1.34 0 0.68 0 0 Z " fill="#363636" transform="translate(305,626)"/>
<path d="M0 0 C0.70511719 0.23332031 1.41023437 0.46664062 2.13671875 0.70703125 C8.64954692 3.19622736 14.84879395 7.34923934 19 13 C19.10890173 18.31440419 16.46484197 21.77673001 13.4375 25.875 C12.80038086 26.76445313 12.80038086 26.76445313 12.15039062 27.671875 C11.10989834 29.12154965 10.0562628 30.56177551 9 32 C7 31 5 30 3 29 C3 28.34 3 27.68 3 27 C2.21625 26.855625 1.4325 26.71125 0.625 26.5625 C-2 26 -2 26 -4 25 C-4 24.34 -4 23.68 -4 23 C-9.61 23 -15.22 23 -21 23 C-21 23.66 -21 24.32 -21 25 C-21.64839844 25.42410156 -22.29679688 25.84820313 -22.96484375 26.28515625 C-25.23812698 27.84836263 -25.23812698 27.84836263 -25.56640625 30.55859375 C-25.76353767 36.68215105 -25.76353767 36.68215105 -22.5 41.5625 C-21.675 42.036875 -20.85 42.51125 -20 43 C-20 43.66 -20 44.32 -20 45 C-19.443125 45.17015625 -18.88625 45.3403125 -18.3125 45.515625 C-13.56837645 47.02220478 -9.20406483 48.76383915 -4.82421875 51.1328125 C-2.9046747 52.04531524 -1.07280459 52.5515787 1 53 C1 53.66 1 54.32 1 55 C1.88558594 55.25523437 2.77117188 55.51046875 3.68359375 55.7734375 C11.04286591 58.49524134 17.34004418 64.14064608 21.10546875 71.01953125 C24.89868173 79.41760541 25.60012196 89.80281004 22.8125 98.625 C22.23279366 100.0932282 21.62664986 101.55118551 21 103 C20.63648438 103.93070313 20.27296875 104.86140625 19.8984375 105.8203125 C17.43216909 111.78709092 15.30045412 115.31272757 10 119 C9.505 119.5775 9.01 120.155 8.5 120.75 C6.23223837 122.63980136 3.86835633 122.68129374 1 123 C1 123.66 1 124.32 1 125 C-6.96034529 129.06485717 -15.30836905 128.45007957 -24 128 C-25.00804687 127.95359375 -26.01609375 127.9071875 -27.0546875 127.859375 C-37.2562223 126.70905357 -47.37228434 119.57969663 -54 112 C-54.76049805 110.06225586 -54.76049805 110.06225586 -55 108 C-54.22729492 106.26074219 -54.22729492 106.26074219 -52.98046875 104.546875 C-52.53509766 103.928125 -52.08972656 103.309375 -51.63085938 102.671875 C-51.15455078 102.03765625 -50.67824219 101.4034375 -50.1875 100.75 C-49.49043945 99.77546875 -49.49043945 99.77546875 -48.77929688 98.78125 C-47.57920272 97.14209701 -46.29518481 95.56510217 -45 94 C-44.34 94 -43.68 94 -43 94 C-42.67 93.01 -42.34 92.02 -42 91 C-37.50564071 92.41251292 -35.2884223 94.7115777 -32 98 C-24.94191814 102.20481473 -17.0849048 102.89965558 -9 102 C-5.84706749 100.7057028 -3.56107266 99.12214532 -2 96 C-1.58741828 92.61682989 -1.48676673 89.37423575 -2 86 C-4.33830958 83.4595774 -4.33830958 83.4595774 -7 82 C-7 81.34 -7 80.68 -7 80 C-7.95712891 79.81824219 -7.95712891 79.81824219 -8.93359375 79.6328125 C-9.75988281 79.46523438 -10.58617187 79.29765625 -11.4375 79.125 C-12.26121094 78.96257812 -13.08492187 78.80015625 -13.93359375 78.6328125 C-14.61550781 78.42398438 -15.29742188 78.21515625 -16 78 C-16.33 77.34 -16.66 76.68 -17 76 C-20.01647182 74.61745041 -23.05684207 73.36697418 -26.1484375 72.1640625 C-32.11567109 69.71435608 -37.3241228 66.48795779 -42 62 C-42 61.34 -42 60.68 -42 60 C-42.99 59.67 -43.98 59.34 -45 59 C-45 57.68 -45 56.36 -45 55 C-45.66 55 -46.32 55 -47 55 C-52.15550373 41.77501216 -52.7858549 29.29369042 -47 16 C-43.17057016 8.96550388 -38.68478797 5.79571641 -31.2578125 2.97265625 C-28.84097017 2.21903005 -28.84097017 2.21903005 -28 0 C-18.98136809 -3.06293159 -9.01070843 -3.17485246 0 0 Z " fill="#383838" transform="translate(644,597)"/>
<path d="M0 0 C1.11375 1.3921875 1.11375 1.3921875 2.25 2.8125 C2.75273438 3.36679687 3.25546875 3.92109375 3.7734375 4.4921875 C8.48168451 10.02724862 9.94347704 15.76291566 11.25 22.8125 C11.42385727 23.72770416 11.59771454 24.64290833 11.77684021 25.58584595 C12.26274217 28.89939362 12.37014151 32.02089429 12.36352539 35.36865234 C12.36341209 37.28996475 12.36341209 37.28996475 12.36329651 39.25009155 C12.35819105 40.63287394 12.35297508 42.01565592 12.34765625 43.3984375 C12.34578917 44.82475739 12.34436664 46.25107792 12.34336853 47.67739868 C12.33956615 51.41576942 12.32975552 55.15410078 12.31866455 58.89245605 C12.30840124 62.71345487 12.3038604 66.5344601 12.29882812 70.35546875 C12.28813103 77.84116371 12.27108223 85.32682632 12.25 92.8125 C9.10418577 92.84138514 5.95840531 92.85925923 2.8125 92.875 C1.91466797 92.88337891 1.01683594 92.89175781 0.09179688 92.90039062 C-1.18920898 92.90522461 -1.18920898 92.90522461 -2.49609375 92.91015625 C-3.28685303 92.91539307 -4.0776123 92.92062988 -4.89233398 92.92602539 C-6.75 92.8125 -6.75 92.8125 -7.75 91.8125 C-7.98192865 90.29780552 -8.16215238 88.77495438 -8.3125 87.25 C-8.39628906 86.42371094 -8.48007812 85.59742188 -8.56640625 84.74609375 C-8.62699219 84.10800781 -8.68757812 83.46992187 -8.75 82.8125 C-9.28367187 83.25980469 -9.81734375 83.70710937 -10.3671875 84.16796875 C-19.24549556 91.3719938 -26.11811505 95.3947839 -37.76953125 95.28125 C-44.36733597 94.2435874 -47.93900461 89.90080703 -51.75 84.8125 C-57.42806842 76.36727166 -57.5042666 67.77085765 -56.75 57.8125 C-55.46743407 52.77747633 -53.8381997 48.20323781 -49.75 44.8125 C-49.09 44.8125 -48.43 44.8125 -47.75 44.8125 C-47.54375 44.214375 -47.3375 43.61625 -47.125 43 C-45.21262996 39.95759312 -43.02878733 39.15078054 -39.75 37.8125 C-38.76 37.8125 -37.77 37.8125 -36.75 37.8125 C-36.75 37.1525 -36.75 36.4925 -36.75 35.8125 C-28.56779142 32.59806091 -20.42775296 31.71754172 -11.75 30.8125 C-12.20341868 29.53990489 -12.66295227 28.26948757 -13.125 27 C-13.38023437 26.29230469 -13.63546875 25.58460938 -13.8984375 24.85546875 C-14.7765769 22.56476641 -14.7765769 22.56476641 -16.75 19.8125 C-22.67995965 17.44583449 -30.98908465 18.63240169 -36.68359375 21.06640625 C-38.35877874 21.97991723 -40.01132249 22.93720598 -41.62890625 23.94921875 C-43.75 24.8125 -43.75 24.8125 -45.89453125 24.23046875 C-48.16623217 22.49441099 -48.82890741 21.08349889 -49.875 18.4375 C-51.24505118 15.02983106 -51.24505118 15.02983106 -52.9296875 11.7734375 C-53.75 9.8125 -53.75 9.8125 -53.54296875 7.71484375 C-51.63366668 3.13439986 -46.72452754 1.22036205 -42.41796875 -0.58203125 C-29.51115674 -5.35164123 -11.85986132 -9.4339806 0 0 Z " fill="#383838" transform="translate(790.75,630.1875)"/>
<path d="M0 0 C0.73992187 0.40734375 1.47984375 0.8146875 2.2421875 1.234375 C6.86125426 3.91866285 10.36701866 7.09454506 14 11 C11.91935475 15.60792115 8.79683068 19.41724374 5.77734375 23.44140625 C3.86350601 25.94027823 3.86350601 25.94027823 3 29 C-0.95116894 28.41975841 -3.14559133 26.42633437 -6.1875 23.9375 C-10.612467 20.63942459 -13.46679496 19.02786066 -18.99609375 19.6015625 C-24.32047791 20.66021198 -26.90164142 21.49329661 -30 26 C-30.64710938 26.30421875 -31.29421875 26.6084375 -31.9609375 26.921875 C-35.53120003 28.80960001 -36.57367438 32.41772836 -38 36 C-38.37640625 36.93457031 -38.7528125 37.86914062 -39.140625 38.83203125 C-44.36626657 54.0489523 -44.16592885 71.10469585 -37.60546875 85.8203125 C-34.38019121 92.20808845 -31.84444198 96.36278622 -25 99 C-20.33235186 99.68686122 -15.71440155 99.92716514 -11 100 C-11 99.34 -11 98.68 -11 98 C-10.22076172 97.65388672 -10.22076172 97.65388672 -9.42578125 97.30078125 C-4.7438457 95.11126241 -1.58913153 92.80025692 2 89 C2.66 89 3.32 89 4 89 C6.13538186 91.39548977 7.8707223 94.10824525 9.6875 96.75 C10.21150391 97.47960937 10.73550781 98.20921875 11.27539062 98.9609375 C11.76587891 99.66992188 12.25636719 100.37890625 12.76171875 101.109375 C13.21506592 101.75874023 13.66841309 102.40810547 14.13549805 103.07714844 C15 105 15 105 14.77661133 107.09082031 C13.54616607 110.11568103 11.39438357 111.81845053 9 114 C8.05125 114.886875 7.1025 115.77375 6.125 116.6875 C2.77233936 119.16846887 -0.02315726 119.90831768 -4 121 C-4.495 122.485 -4.495 122.485 -5 124 C-8.00015912 125.00005304 -9.97423756 125.11575585 -13.10546875 125.09765625 C-14.08837891 125.09443359 -15.07128906 125.09121094 -16.08398438 125.08789062 C-17.10814453 125.07951172 -18.13230469 125.07113281 -19.1875 125.0625 C-20.74114258 125.05573242 -20.74114258 125.05573242 -22.32617188 125.04882812 C-24.88417266 125.0370401 -27.44205733 125.02058515 -30 125 C-30 124.34 -30 123.68 -30 123 C-30.969375 122.95875 -31.93875 122.9175 -32.9375 122.875 C-40.42475471 121.80107054 -47.90902009 115.3871311 -53 110 C-53.31066406 109.36320313 -53.62132812 108.72640625 -53.94140625 108.0703125 C-54.9142284 105.86888304 -54.9142284 105.86888304 -56.953125 104.21875 C-59.62708631 101.32025759 -60.61032498 98.19140021 -61.75 94.5 C-62.08064453 93.50419922 -62.08064453 93.50419922 -62.41796875 92.48828125 C-63.49802212 89.12736984 -64 86.5682021 -64 83 C-64.66 83 -65.32 83 -66 83 C-71.03342277 61.29336429 -68.93566605 36.26411576 -57.16015625 16.98828125 C-55.5274533 14.88398795 -53.82150475 12.94058617 -52 11 C-51.18550742 9.89730235 -50.3728422 8.79325123 -49.5625 7.6875 C-46.37319304 4.34261709 -43.17260311 2.84085431 -39 1 C-37.3603125 0.13375 -37.3603125 0.13375 -35.6875 -0.75 C-33 -2 -33 -2 -30 -2 C-30 -2.66 -30 -3.32 -30 -4 C-19.57756752 -7.18680893 -9.2060395 -5.3874572 0 0 Z " fill="#393939" transform="translate(251,600)"/>
<path d="M0 0 C7.54762897 6.23902079 10.05854193 13.31580041 11.23046875 22.84375 C11.31329565 25.28005483 11.34833943 27.71829738 11.34399414 30.15600586 C11.34414017 30.84953156 11.34428619 31.54305725 11.34443665 32.25759888 C11.34374615 34.52463023 11.33599467 36.79157695 11.328125 39.05859375 C11.32625775 40.64042618 11.3248353 42.22225919 11.32383728 43.80409241 C11.3200363 47.94851301 11.31022689 52.09289805 11.2991333 56.23730469 C11.28886695 60.47395344 11.28432851 64.71060799 11.27929688 68.94726562 C11.26860226 77.24611182 11.25102528 85.54492237 11.23046875 93.84375 C3.31046875 93.84375 -4.60953125 93.84375 -12.76953125 93.84375 C-12.79926025 90.92946167 -12.79926025 90.92946167 -12.82958984 87.95629883 C-12.89741847 81.53007777 -12.97419825 75.10401219 -13.05705833 68.67796803 C-13.10695938 64.78266255 -13.1532898 60.88738338 -13.19140625 56.99194336 C-13.22833752 53.23114613 -13.27471843 49.47057232 -13.32759476 45.70996666 C-13.34609713 44.27672948 -13.36122039 42.84344449 -13.37287521 41.41013527 C-13.38980819 39.39938548 -13.41997597 37.38876043 -13.45068359 35.37817383 C-13.46400726 34.23455887 -13.47733093 33.09094391 -13.49105835 31.91267395 C-13.83932106 28.07462802 -14.82126541 25.18882862 -17.0390625 22.04296875 C-19.53740415 20.31161235 -21.45686914 20.55036193 -24.45703125 20.65625 C-25.45089844 20.68332031 -26.44476563 20.71039062 -27.46875 20.73828125 C-28.60763672 20.79048828 -28.60763672 20.79048828 -29.76953125 20.84375 C-29.76953125 21.50375 -29.76953125 22.16375 -29.76953125 22.84375 C-30.90592041 23.40666748 -32.04230957 23.96958496 -33.21313477 24.54956055 C-35.99412688 26.4800302 -36.68227742 27.45478824 -37.43405151 30.80606079 C-37.67779097 34.72878145 -37.71400209 38.62355585 -37.671875 42.55078125 C-37.68126381 44.00097389 -37.69372393 45.45114961 -37.7091217 46.90129089 C-37.74131766 50.70744768 -37.73191745 54.51239837 -37.71374512 58.31860352 C-37.70257833 62.2066767 -37.73089896 66.09444247 -37.75585938 69.98242188 C-37.79898295 77.603208 -37.79449716 85.22282702 -37.76953125 92.84375 C-45.35953125 92.84375 -52.94953125 92.84375 -60.76953125 92.84375 C-60.76953125 61.82375 -60.76953125 30.80375 -60.76953125 -1.15625 C-54.16953125 -1.15625 -47.56953125 -1.15625 -40.76953125 -1.15625 C-40.10953125 2.14375 -39.44953125 5.44375 -38.76953125 8.84375 C-38.10953125 8.1425 -37.44953125 7.44125 -36.76953125 6.71875 C-26.37540447 -3.58729096 -13.1580947 -8.86968546 0 0 Z " fill="#363636" transform="translate(517.76953125,629.15625)"/>
<path d="M0 0 C6.6 0 13.2 0 20 0 C20 8.58 20 17.16 20 26 C26.27 26 32.54 26 39 26 C39 33.26 39 40.52 39 48 C32.73 48 26.46 48 20 48 C20 63.18 20 78.36 20 94 C20.66 94 21.32 94 22 94 C22.66 95.98 23.32 97.96 24 100 C28.95 100 33.9 100 39 100 C39.50314563 102.77029586 40.00263838 105.5411652 40.5 108.3125 C40.64308594 109.09818359 40.78617188 109.88386719 40.93359375 110.69335938 C41.13662109 111.8293457 41.13662109 111.8293457 41.34375 112.98828125 C41.46943359 113.68477783 41.59511719 114.38127441 41.72460938 115.09887695 C42 117 42 117 42 120 C33.15543902 123.85944479 22.80529221 124.6077882 13.37109375 122.37890625 C6.87156841 119.51708002 2.37702324 113.65907936 -0.8125 107.5 C-3.43258839 99.77763423 -4.31903123 93.05567249 -4.4140625 84.9375 C-4.43342865 83.90560547 -4.4527948 82.87371094 -4.4727478 81.81054688 C-4.53214727 78.54044657 -4.57876973 75.27031031 -4.625 72 C-4.66321627 69.77212074 -4.70227009 67.54425568 -4.7421875 65.31640625 C-4.83781604 59.87772057 -4.92199244 54.4389658 -5 49 C-8.3 48.67 -11.6 48.34 -15 48 C-15 40.74 -15 33.48 -15 26 C-11.73118027 25.18279507 -9.53000931 24.88926457 -6.25 24.9375 C-5.45078125 24.94652344 -4.6515625 24.95554687 -3.828125 24.96484375 C-3.22484375 24.97644531 -2.6215625 24.98804688 -2 25 C-1.93941406 23.78183594 -1.87882813 22.56367187 -1.81640625 21.30859375 C-1.73193597 19.68488723 -1.64729128 18.06118978 -1.5625 16.4375 C-1.52318359 15.63763672 -1.48386719 14.83777344 -1.44335938 14.01367188 C-1.40146484 13.22412109 -1.35957031 12.43457031 -1.31640625 11.62109375 C-1.27974854 10.9036499 -1.24309082 10.18620605 -1.20532227 9.44702148 C-0.9398893 6.28360342 -0.44894696 3.1426287 0 0 Z " fill="#393939" transform="translate(686,602)"/>
<path d="M0 0 C-0.47348214 3.45913666 -0.95474764 6.91714589 -1.4375 10.375 C-1.57220703 11.35984375 -1.70691406 12.3446875 -1.84570312 13.359375 C-1.97783203 14.30039062 -2.10996094 15.24140625 -2.24609375 16.2109375 C-2.42676392 17.51490479 -2.42676392 17.51490479 -2.61108398 18.84521484 C-3 21 -3 21 -4 23 C-7.22054431 23.33108399 -10.39580257 23.46555714 -13.62890625 23.56640625 C-15.42333399 23.6459281 -17.21322811 23.81631317 -19 24 C-19.33 24.66 -19.66 25.32 -20 26 C-20.61463104 26.26194153 -21.22926208 26.52388306 -21.86251831 26.79376221 C-26.50038963 29.4110364 -28.24955792 35.20556011 -30 40 C-30.77360286 44.42422862 -30.84042158 48.71915127 -30.8046875 53.203125 C-30.82524704 55.00882965 -30.82524704 55.00882965 -30.84622192 56.85101318 C-30.88325688 60.65106489 -30.87982443 64.44979475 -30.875 68.25 C-30.89314509 70.84507227 -30.91395342 73.44012737 -30.9375 76.03515625 C-30.98910365 82.35698974 -31.00444766 88.67796758 -31 95 C-38.59 95 -46.18 95 -54 95 C-54 63.98 -54 32.96 -54 1 C-47.73 1 -41.46 1 -35 1 C-34.34 5.95 -33.68 10.9 -33 16 C-32.34 14.68 -31.68 13.36 -31 12 C-26.56982459 5.36058145 -22.57407391 1.15770603 -15.0625 -1.75 C-9.32292732 -2.44570578 -5.27456304 -2.32080774 0 0 Z " fill="#353535" transform="translate(877,627)"/>
<path d="M0 0 C7.92 0 15.84 0 24 0 C24 31.68 24 63.36 24 96 C16.08 96 8.16 96 0 96 C0 64.32 0 32.64 0 0 Z " fill="#3B3B3B" transform="translate(549,627)"/>
<path d="M0 0 C5.57824465 4.22307787 7.88552552 9.17786147 9 16 C9.30486409 19.23511784 9.38126749 22.43905776 9.375 25.6875 C9.37338867 26.55874512 9.37177734 27.42999023 9.37011719 28.32763672 C9.23475469 35.51644677 8.48551101 42.56686549 5 49 C2.921875 50.2109375 2.921875 50.2109375 1 51 C0.67 51.66 0.34 52.32 0 53 C-9.67768056 53.86066329 -9.67768056 53.86066329 -13.625 50.625 C-16 48 -16 48 -16 46 C-16.99 45.67 -17.98 45.34 -19 45 C-20.7511306 38.32381459 -21.19274215 32.05275023 -21.1875 25.1875 C-21.18814453 24.36338623 -21.18878906 23.53927246 -21.18945312 22.69018555 C-21.15342118 18.66975745 -20.99446627 14.92217498 -20 11 C-19.34 11 -18.68 11 -18 11 C-17.896875 10.071875 -17.79375 9.14375 -17.6875 8.1875 C-16.99468505 4.97535795 -16.6120831 3.88069983 -14 2 C-13.34 2 -12.68 2 -12 2 C-12 1.34 -12 0.68 -12 0 C-7.74924379 -1.41691874 -4.28024682 -1.37706116 0 0 Z " fill="#F5F5F5" transform="translate(321,649)"/>
<path d="M0 0 C0.85464844 -0.01417969 1.70929687 -0.02835938 2.58984375 -0.04296875 C5.96118006 0.27126323 8.04381371 1.26800159 10.546875 3.52734375 C14.18622349 8.1214596 14.57270132 11.85148037 14.43359375 17.63671875 C13.68077132 22.81138239 11.071562 25.74493479 7.12109375 28.97265625 C3.45903446 31.13375765 0.1419856 31.14610704 -3.9375 30.1875 C-7.8984727 28.37524029 -10.34208643 26.01339624 -12.875 22.5 C-14.64216682 16.99059757 -15.01438304 11.5976668 -12.625 6.25 C-8.75663659 1.52200028 -6.24373666 0.04694539 0 0 Z " fill="#404040" transform="translate(560.9375,583.8125)"/>
<path d="M0 0 C1.1859375 -0.00386719 2.371875 -0.00773438 3.59375 -0.01171875 C5.45386719 0.00568359 5.45386719 0.00568359 7.3515625 0.0234375 C9.20007813 0.00603516 9.20007813 0.00603516 11.0859375 -0.01171875 C12.27445312 -0.00785156 13.46296875 -0.00398437 14.6875 0 C15.77337402 0.00338379 16.85924805 0.00676758 17.97802734 0.01025391 C21.64405974 0.48485019 24.34257424 1.76444924 26.9765625 4.3984375 C27.54905952 8.50133282 27.18077278 10.09212208 24.8515625 13.5859375 C22.0300317 16.93304757 18.33969241 19.06130149 13.97949219 19.68334961 C11.78291822 19.80032246 9.61330231 19.8080107 7.4140625 19.7734375 C6.3012793 19.79083984 6.3012793 19.79083984 5.16601562 19.80859375 C0.65481573 19.78449117 -2.3979885 19.36281615 -6.0234375 16.3984375 C-6.3534375 15.4084375 -6.6834375 14.4184375 -7.0234375 13.3984375 C-7.6834375 13.3984375 -8.3434375 13.3984375 -9.0234375 13.3984375 C-9.10465674 11.79510959 -9.16272884 10.19059724 -9.2109375 8.5859375 C-9.24574219 7.69261719 -9.28054688 6.79929687 -9.31640625 5.87890625 C-9.0234375 3.3984375 -9.0234375 3.3984375 -7.8815918 1.76831055 C-5.23430706 -0.18332717 -3.26551467 0.01019715 0 0 Z " fill="#F4F4F4" transform="translate(394.0234375,725.6015625)"/>
<path d="M0 0 C5.23113068 0.08205695 5.23113068 0.08205695 8.1875 2.75 C8.661875 3.636875 9.13625 4.52375 9.625 5.4375 C10.615 6.9225 10.615 6.9225 11.625 8.4375 C12.25193472 13.89766404 12.96873711 20.28581931 9.8125 25.0625 C9.090625 25.84625 8.36875 26.63 7.625 27.4375 C7.18671875 27.98277344 6.7484375 28.52804687 6.296875 29.08984375 C3.97551755 30.96103142 2.60942314 30.68696473 -0.3125 30.375 C-3.68188879 29.92804026 -5.14982074 29.60226531 -7.9375 27.5625 C-10.68481115 23.50125743 -10.56853532 19.85258688 -10.625 15.0625 C-10.65078125 13.75539063 -10.6765625 12.44828125 -10.703125 11.1015625 C-10.07478812 4.08513395 -7.05606504 0.16079505 0 0 Z " fill="#F5F5F5" transform="translate(400.375,644.5625)"/>
<path d="M0 0 C0.10871967 2.54283234 0.18762401 5.08095088 0.25 7.625 C0.30027344 8.69427734 0.30027344 8.69427734 0.3515625 9.78515625 C0.44718209 14.99642406 -0.57094642 17.85734963 -4 22 C-8.05753334 24.55044953 -13.32389878 24.81437718 -18 24 C-20.46088685 22.08410408 -20.98857633 21.034271 -22 18 C-22.54027041 12.27313367 -21.55592955 9.49720502 -18 5 C-15.47580407 2.47580407 -13.57642137 2.21042962 -10.125 1.375 C-9.07570313 1.11460937 -8.02640625 0.85421875 -6.9453125 0.5859375 C-4 0 -4 0 0 0 Z " fill="#F3F3F3" transform="translate(779,679)"/>
<path d="M0 0 C1.1034375 -0.00257813 2.206875 -0.00515625 3.34375 -0.0078125 C6.5 0.125 6.5 0.125 8.74291992 0.61352539 C12.10556296 1.23733989 15.35074313 1.34292264 18.76953125 1.44140625 C19.45053391 1.46218735 20.13153656 1.48296844 20.83317566 1.50437927 C22.99285508 1.56937878 25.15264846 1.62852712 27.3125 1.6875 C28.78321456 1.7307325 30.25391791 1.77434825 31.72460938 1.81835938 C35.31629155 1.92572494 38.90806912 2.02516514 42.5 2.125 C42.5 9.055 42.5 15.985 42.5 23.125 C38.21 23.125 33.92 23.125 29.5 23.125 C29.5 22.795 29.5 22.465 29.5 22.125 C33.46 22.125 37.42 22.125 41.5 22.125 C41.5 15.855 41.5 9.585 41.5 3.125 C34.1493427 3.0756336 26.7987815 3.03929626 19.44799805 3.01513672 C16.94635335 3.00506712 14.44472045 2.99141066 11.94311523 2.97412109 C8.35137014 2.94991508 4.7597804 2.93852654 1.16796875 2.9296875 C0.04601608 2.91936493 -1.07593658 2.90904236 -2.23188782 2.89840698 C-3.27274033 2.89825592 -4.31359283 2.89810486 -5.38598633 2.89794922 C-6.30309891 2.893508 -7.22021149 2.88906677 -8.16511536 2.88449097 C-10.77225885 2.96957127 -10.77225885 2.96957127 -13.5 5.125 C-15.6875 4.75 -15.6875 4.75 -17.5 4.125 C-11.46646667 0.89776124 -6.81251281 -0.01591709 0 0 Z " fill="#858585" transform="translate(400.5,624.875)"/>
<path d="M0 0 C4.95 0.99 4.95 0.99 10 2 C10 2.66 10 3.32 10 4 C14.30091146 4.0754071 18.60145026 4.12917959 22.90283203 4.16479492 C24.3592806 4.17967624 25.81568608 4.19998796 27.27197266 4.22631836 C36.34595767 4.38600547 44.40392804 3.84204994 53.23779297 1.55200195 C56 1 56 1 59 2 C53.88521916 4.44038563 49.4346395 5.63029321 43.8125 6.1875 C43.06564941 6.26645508 42.31879883 6.34541016 41.54931641 6.42675781 C28.67900888 7.70466069 12.59993495 8.62853426 1 2 C0.67 1.34 0.34 0.68 0 0 Z " fill="#83D2D6" transform="translate(561,357)"/>
<path d="M0 0 C1.00289062 -0.01611328 2.00578125 -0.03222656 3.0390625 -0.04882812 C9.28524337 -0.05291594 13.92559356 0.73484482 19.625 3.3125 C17.08100637 4.58449682 15.81460922 4.21938572 13 3.875 C2.96410877 2.85686611 -7.40620832 2.65103472 -17.375 4.3125 C-17.375 3.6525 -17.375 2.9925 -17.375 2.3125 C-11.63172472 -0.14750358 -6.1346371 -0.01956198 0 0 Z " fill="#CDEDEE" transform="translate(590.375,127.6875)"/>
<path d="M0 0 C6.875 0.875 6.875 0.875 8 2 C16.03483227 2.37995034 24.02716033 2.02875351 32 1 C29.7954668 3.53521318 28.32675395 4.50974152 25 5 C16.79266902 5.53750782 8.5750946 5.59775735 1 2 C0.67 1.34 0.34 0.68 0 0 Z " fill="#6B6B6B" transform="translate(298,720)"/>
<path d="M0 0 C4.34174442 0.67963477 8.59703519 1.55848785 12.875 2.5625 C14.02742188 2.83191406 15.17984375 3.10132813 16.3671875 3.37890625 C17.23601562 3.58386719 18.10484375 3.78882813 19 4 C19 4.66 19 5.32 19 6 C25.6 6.33 32.2 6.66 39 7 C39 7.33 39 7.66 39 8 C36.47909222 8.0272367 33.95848543 8.04695207 31.4375 8.0625 C30.38079102 8.07506836 30.38079102 8.07506836 29.30273438 8.08789062 C18.61534564 8.13714126 9.65453499 5.3137284 0 1 C0 0.67 0 0.34 0 0 Z " fill="#82D198" transform="translate(429,514)"/>
<path d="M0 0 C0.33 1.32 0.66 2.64 1 4 C-3.95 3.67 -8.9 3.34 -14 3 C-14.66 4.32 -15.32 5.64 -16 7 C-17.7265625 8.703125 -17.7265625 8.703125 -19.625 10.25 C-20.25664063 10.77078125 -20.88828125 11.2915625 -21.5390625 11.828125 C-22.02117188 12.21484375 -22.50328125 12.6015625 -23 13 C-21.25 7.25 -21.25 7.25 -19 5 C-18.01 5 -17.02 5 -16 5 C-15.67 4.01 -15.34 3.02 -15 2 C-10.05 2 -5.1 2 0 2 C0 1.34 0 0.68 0 0 Z " fill="#B9B9B9" transform="translate(873,648)"/>
<path d="M0 0 C1.16144531 0.00902344 2.32289063 0.01804687 3.51953125 0.02734375 C4.39996094 0.03894531 5.28039062 0.05054688 6.1875 0.0625 C6.1875 0.7225 6.1875 1.3825 6.1875 2.0625 C4.99511719 2.11148438 3.80273438 2.16046875 2.57421875 2.2109375 C1.00778932 2.28597604 -0.55861579 2.3615234 -2.125 2.4375 C-2.91068359 2.4684375 -3.69636719 2.499375 -4.50585938 2.53125 C-5.6418457 2.58925781 -5.6418457 2.58925781 -6.80078125 2.6484375 C-7.49727783 2.6798584 -8.19377441 2.7112793 -8.91137695 2.74365234 C-11.13782739 2.98368253 -11.13782739 2.98368253 -13.8125 5.0625 C-16 4.6875 -16 4.6875 -17.8125 4.0625 C-11.63711387 0.75938649 -6.97431738 -0.07044765 0 0 Z " fill="#737373" transform="translate(400.8125,624.9375)"/>
<path d="M0 0 C1.42892578 -0.02126953 1.42892578 -0.02126953 2.88671875 -0.04296875 C5.3125 0.1875 5.3125 0.1875 7.3125 2.1875 C6.19230469 2.23648438 5.07210938 2.28546875 3.91796875 2.3359375 C2.44528797 2.41097856 0.97263293 2.48652582 -0.5 2.5625 C-1.23798828 2.5934375 -1.97597656 2.624375 -2.73632812 2.65625 C-6.50643115 2.86096148 -8.48400741 3.05183827 -11.6875 5.1875 C-13.875 4.8125 -13.875 4.8125 -15.6875 4.1875 C-10.48536583 0.76895469 -6.16484279 0.04205213 0 0 Z " fill="#707070" transform="translate(504.6875,624.8125)"/>
<path d="M0 0 C0.33 0.99 0.66 1.98 1 3 C-0.43122782 4.48523642 -1.87020889 5.96300462 -3.3125 7.4375 C-4.51326172 8.67306641 -4.51326172 8.67306641 -5.73828125 9.93359375 C-8 12 -8 12 -11 13 C-9.66342976 10.09663689 -8.15277429 7.7897189 -6.0625 5.375 C-5.55847656 4.78460937 -5.05445313 4.19421875 -4.53515625 3.5859375 C-3 2 -3 2 0 0 Z " fill="#646464" transform="translate(207,603)"/>
<path d="M0 0 C0.57234375 0.22558594 1.1446875 0.45117188 1.734375 0.68359375 C1.19167969 1.0703125 0.64898438 1.45703125 0.08984375 1.85546875 C-0.98330078 2.63664063 -0.98330078 2.63664063 -2.078125 3.43359375 C-2.78582031 3.9440625 -3.49351562 4.45453125 -4.22265625 4.98046875 C-6.29540191 6.70841733 -7.73938354 8.46885851 -9.265625 10.68359375 C-9.595625 9.03359375 -9.925625 7.38359375 -10.265625 5.68359375 C-9.02827516 4.64746342 -7.77517863 3.63011573 -6.515625 2.62109375 C-5.81953125 2.05261719 -5.1234375 1.48414063 -4.40625 0.8984375 C-2.265625 -0.31640625 -2.265625 -0.31640625 0 0 Z " fill="#6F6F6F" transform="translate(747.265625,631.31640625)"/>
<path d="M0 0 C1.14662109 -0.03867187 1.14662109 -0.03867187 2.31640625 -0.078125 C4.93473244 0.32691994 5.78268701 1.24096187 7.4375 3.25 C6.48488281 3.23839844 5.53226563 3.22679687 4.55078125 3.21484375 C3.29652344 3.20582031 2.04226562 3.19679688 0.75 3.1875 C-0.49136719 3.17589844 -1.73273438 3.16429687 -3.01171875 3.15234375 C-6.02485454 3.23521327 -8.64525339 3.54160551 -11.5625 4.25 C-8.24264346 0.43216497 -4.90753066 0.09964529 0 0 Z " fill="#A3A3A3" transform="translate(234.5625,618.75)"/>
<path d="M0 0 C4.95 0.99 4.95 0.99 10 2 C10 2.66 10 3.32 10 4 C11.98 4 13.96 4 16 4 C16 4.66 16 5.32 16 6 C10.35966205 5.50523351 6.05786581 4.58054378 1 2 C0.67 1.34 0.34 0.68 0 0 Z " fill="#B3E4E5" transform="translate(561,357)"/>
<path d="M0 0 C0.66 0.33 1.32 0.66 2 1 C-1.72346836 5.42094803 -5.29521038 9.57833482 -10 13 C-7.73457912 7.85131619 -4.68917123 3.12611416 0 0 Z " fill="#636363" transform="translate(856,628)"/>
<path d="M0 0 C-5.66748157 2.83374078 -10.69732561 3.63223832 -17 4 C-17 3.34 -17 2.68 -17 2 C-14.73139163 1.4695592 -12.46001511 0.95094566 -10.1875 0.4375 C-8.29064453 0.00244141 -8.29064453 0.00244141 -6.35546875 -0.44140625 C-3 -1 -3 -1 0 0 Z " fill="#A3DEE0" transform="translate(620,359)"/>
<path d="M0 0 C4.29 0 8.58 0 13 0 C13 0.66 13 1.32 13 2 C9.37 2 5.74 2 2 2 C1.67 2.99 1.34 3.98 1 5 C0.67 3.35 0.34 1.7 0 0 Z " fill="#CFCFCF" transform="translate(430,648)"/>
<path d="M0 0 C0.66 0.33 1.32 0.66 2 1 C1.04882866 2.1725131 0.08882991 3.33787015 -0.875 4.5 C-1.40867187 5.1496875 -1.94234375 5.799375 -2.4921875 6.46875 C-2.98976563 6.9740625 -3.48734375 7.479375 -4 8 C-4.66 8 -5.32 8 -6 8 C-6.33 9.65 -6.66 11.3 -7 13 C-7.66 13 -8.32 13 -9 13 C-7.06382979 6.29787234 -7.06382979 6.29787234 -4 4 C-3.34 4 -2.68 4 -2 4 C-1.34 2.68 -0.68 1.36 0 0 Z " fill="#717171" transform="translate(745,671)"/>
<path d="M0 0 C0.66 0.33 1.32 0.66 2 1 C0.90344712 2.31886772 -0.20253423 3.62990057 -1.3125 4.9375 C-1.92738281 5.66839844 -2.54226563 6.39929688 -3.17578125 7.15234375 C-5 9 -5 9 -8 10 C-6.44303593 6.17836093 -3.96591316 3.81381505 -1 1 C-0.67 0.67 -0.34 0.34 0 0 Z " fill="#5E5E5E" transform="translate(381,630)"/>
<path d="M0 0 C0.66 0.33 1.32 0.66 2 1 C-0.1373697 4.31660816 -2.21915337 7.21915337 -5 10 C-5.33 10.99 -5.66 11.98 -6 13 C-6.66 13 -7.32 13 -8 13 C-6.40956621 7.91061189 -3.2553049 4.12543357 0 0 Z " fill="#707070" transform="translate(604,604)"/>
<path d="M0 0 C1.4835001 0.42257276 2.96176424 0.86356322 4.4375 1.3125 C5.67306641 1.67794922 5.67306641 1.67794922 6.93359375 2.05078125 C7.61550781 2.36402344 8.29742188 2.67726563 9 3 C9.33 3.99 9.66 4.98 10 6 C8.72125 5.7525 7.4425 5.505 6.125 5.25 C5.40570312 5.11078125 4.68640625 4.9715625 3.9453125 4.828125 C2 4 2 4 0.7421875 1.921875 C0.37480469 0.97054688 0.37480469 0.97054688 0 0 Z " fill="#9BB5DA" transform="translate(518,264)"/>
<path d="M0 0 C5.67276511 -0.29341888 8.99067246 -0.00559652 14 3 C11.13822943 4.43088528 9.06624227 3.59991697 6 3 C6 2.34 6 1.68 6 1 C4.02 1 2.04 1 0 1 C0 0.67 0 0.34 0 0 Z " fill="#7095CA" transform="translate(483,252)"/>
<path d="M0 0 C0.33 0.99 0.66 1.98 1 3 C-0.65 4.65 -2.3 6.3 -4 8 C-4.99 7.67 -5.98 7.34 -7 7 C-5.625 5.5 -5.625 5.5 -4 4 C-3.34 4 -2.68 4 -2 4 C-1.34 2.68 -0.68 1.36 0 0 Z " fill="#68C883" transform="translate(404,309)"/>
<path d="M0 0 C3.3 0.33 6.6 0.66 10 1 C9.67 1.66 9.34 2.32 9 3 C6.69 3 4.38 3 2 3 C2 2.34 2 1.68 2 1 C1.34 0.67 0.68 0.34 0 0 Z " fill="#6D6D6D" transform="translate(395,674)"/>
<path d="M0 0 C4.95 0.99 4.95 0.99 10 2 C10 2.66 10 3.32 10 4 C8.02 4 6.04 4 4 4 C4 3.34 4 2.68 4 2 C2.68 1.67 1.36 1.34 0 1 C0 0.67 0 0.34 0 0 Z " fill="#8DAAD5" transform="translate(481,132)"/>
<path d="M0 0 C3.34373475 0.55728913 6.03312999 1.35173889 9 3 C8.67 3.66 8.34 4.32 8 5 C1.125 2.25 1.125 2.25 0 0 Z " fill="#6F6F6F" transform="translate(610,664)"/>
<path d="M0 0 C0.66 0.33 1.32 0.66 2 1 C-1.5 5.875 -1.5 5.875 -6 7 C-4.02 4.69 -2.04 2.38 0 0 Z " fill="#6D6D6D" transform="translate(293,632)"/>
</svg>
